<svg xmlns="http://www.w3.org/2000/svg" viewBox="0 0 64 80" x="0px" y="0px"><title>spotlight-stage-
lights-
illuminated-spotlights</title><g><path d="M29.151,54.074l-2.236-.343-1.009-2.155a1,1,0,0,0-1.812,0l-1.009,2.155-2.236.343a1,1,0,0,0-.565,1.686l1.648,1.693-.391,2.4a1,1,0,0,0,1.471,1.037L25,59.791l1.988,1.1a1,1,0,0,0,1.471-1.037l-.391-2.4,1.648-1.693a1,1,0,0,0-.565-1.686Zm-2.867,2.345a1,1,0,0,0-.271.858l.141.867-.67-.372a1,1,0,0,0-.968,0l-.67.372.141-.867a1,1,0,0,0-.271-.858l-.644-.662.844-.13a1,1,0,0,0,.754-.565l.33-.7.33.7a1,1,0,0,0,.754.565l.844.13Z"/><path d="M42.151,49.6l-3.618-.554-1.628-3.467a1,1,0,0,0-1.81,0l-1.628,3.467-3.618.554a1,1,0,0,0-.565,1.686L31.932,54l-.627,3.844a1,1,0,0,0,1.471,1.036L36,57.093l3.224,1.782A1,1,0,0,0,40.7,57.839L40.068,54l2.648-2.713a1,1,0,0,0-.565-1.686ZM38.284,52.96a1,1,0,0,0-.271.859l.377,2.31-1.906-1.054a1,1,0,0,0-.968,0L33.61,56.129l.377-2.31a1,1,0,0,0-.271-.859l-1.641-1.682,2.222-.34a.994.994,0,0,0,.754-.563L36,48.354l.949,2.021a.994.994,0,0,0,.754.563l2.222.34Z"/><path d="M62,4a1,1,0,0,0,0-2H3A1,1,0,0,0,3,4H7.586l-3,3H3A1,1,0,0,0,3,9H6.041L6,12.817,4.18,14.725a4.36,4.36,0,0,0,.142,6.159l4.08,3.9a1,1,0,0,0,.691.278h.023a1.031,1.031,0,0,0,.348-.078L20.611,41l-5.56,16.68a1,1,0,0,0,1.9.632l5.087-15.263,3.143,4.518a1,1,0,0,0,1.642-1.142l-4-5.743,6.123-18.37A.979.979,0,0,0,28.988,22h6.021a.979.979,0,0,0,.051.34l4.349,12.046-4.228,6.041a1,1,0,1,0,1.638,1.146l3.421-4.887L48.06,58.34A1,1,0,0,0,49,59a.987.987,0,0,0,.34-.06,1,1,0,0,0,.6-1.28l-8.3-22.978,8.874-12.676,6.362,2.175-6.85,27.578a1,1,0,0,0,.73,1.212A1.06,1.06,0,0,0,51,53a1,1,0,0,0,.97-.759l6.812-27.429a1.026,1.026,0,0,0,.209.035,1,1,0,0,0,.946-.677l1.827-5.339A4.357,4.357,0,0,0,59.052,13.3L59,13.281V9h3a1,1,0,0,0,0-2H57.414l3-3ZM27.414,7,30,4.414,32.586,7ZM22.586,7H17.414L20,4.414Zm-.172-3h5.172L25,6.586Zm10,0h5.172L35,6.586ZM40,4.414,42.586,7H37.414ZM42.414,4h5.172L45,6.586ZM17.586,4,15,6.586,12.414,4ZM10,4.414,12.586,7H7.414ZM31,9v2h-.643A4.363,4.363,0,0,0,26,15.357V21a.994.994,0,0,0,.949.99l-.668,2-9.792-6.231.234-.245A1,1,0,0,0,16.69,16.1l-4.08-3.9A4.259,4.259,0,0,0,9.5,11a4.339,4.339,0,0,0-1.482.309L8.042,9Zm5,11H28V15.357A2.361,2.361,0,0,1,30.357,13h3.286A2.361,2.361,0,0,1,36,15.357ZM5.7,19.438a2.359,2.359,0,0,1-.077-3.333L7.9,13.729A2.342,2.342,0,0,1,9.546,13H9.6a2.34,2.34,0,0,1,1.627.653l3.357,3.205L9.061,22.645Zm5.226,4.146,4.151-4.347,10.383,6.607a1.093,1.093,0,0,0,.175.079L21.4,38.637Zm48.829-7.2a2.338,2.338,0,0,1,.114,1.8l-1.5,4.392L50.8,19.988,52.3,15.6A2.359,2.359,0,0,1,55.3,14.128l3.109,1.063A2.341,2.341,0,0,1,59.758,16.384ZM57,12.6l-1.057-.362a4.364,4.364,0,0,0-5.533,2.713l-1.826,5.34a1,1,0,0,0,.048.764c.015.029.041.048.058.076L40.812,32.382,37.059,21.988A.993.993,0,0,0,38,21V15.357A4.363,4.363,0,0,0,33.643,11H33V9H57ZM47.414,7,50,4.414,52.586,7ZM55,6.586,52.414,4h5.172Z"/></g><text x="0" y="79" fill="#000000" font-size="5px" font-weight="bold" font-family="'Helvetica Neue', Helvetica, Arial-Unicode, Arial, Sans-serif">Created by pongsakorn</text><text x="0" y="84" fill="#000000" font-size="5px" font-weight="bold" font-family="'Helvetica Neue', Helvetica, Arial-Unicode, Arial, Sans-serif">from the Noun Project</text></svg>