<svg xmlns="http://www.w3.org/2000/svg" xmlns:xlink="http://www.w3.org/1999/xlink" width="1080" zoomAndPan="magnify" viewBox="0 0 810 809.999993" height="1080" preserveAspectRatio="xMidYMid meet" version="1.0"><path fill="#000000" d="M 203.390625 492.148438 C 176.128906 490.761719 149.539062 501.550781 130.160156 520.894531 C 111.421875 539.632812 101.136719 564.492188 101.136719 590.90625 C 101.136719 617.351562 111.453125 642.210938 130.160156 660.914062 C 148.898438 679.652344 173.761719 689.933594 200.175781 689.933594 C 226.628906 689.933594 251.488281 679.617188 270.191406 660.914062 C 289.574219 641.570312 300.058594 614.882812 298.976562 588.199219 C 298.402344 562.765625 288.222656 538.855469 270.191406 520.863281 C 252.199219 502.902344 228.320312 492.65625 203.355469 492.113281 Z M 231.972656 622.660156 C 214.992188 639.671875 185.429688 639.671875 168.449219 622.660156 C 159.960938 614.207031 155.257812 602.910156 155.257812 590.902344 C 155.257812 578.898438 159.925781 567.667969 168.449219 559.144531 C 176.769531 550.824219 188 546.191406 199.90625 546.191406 C 200.515625 546.191406 201.089844 546.191406 201.734375 546.257812 C 213.164062 546.496094 223.921875 551.09375 232.007812 559.179688 C 240.089844 567.261719 244.691406 578.015625 244.960938 589.957031 C 245.433594 602.0625 240.699219 614.003906 232.007812 622.730469 Z M 231.972656 622.660156 " fill-opacity="1" fill-rule="nonzero"/><path fill="#000000" d="M 745.941406 150.894531 C 754.027344 138.582031 758.390625 124.210938 758.390625 109.160156 C 758.390625 88.832031 750.441406 69.691406 735.964844 55.214844 C 706.234375 25.453125 657.832031 25.453125 628.0625 55.214844 L 273.925781 409.316406 C 201.335938 379.6875 118.261719 395.855469 61.707031 452.40625 C -14.667969 528.773438 -14.667969 653.066406 61.707031 729.433594 C 99.894531 767.617188 150.054688 786.726562 200.21875 786.726562 C 250.378906 786.726562 300.542969 767.617188 338.761719 729.433594 C 395.285156 672.882812 411.484375 589.820312 381.824219 517.238281 L 507.917969 391.183594 L 558.449219 441.710938 C 568.597656 451.859375 586.558594 451.859375 596.707031 441.710938 L 666.351562 372.074219 C 676.9375 361.488281 676.9375 344.40625 666.351562 333.820312 L 615.816406 283.292969 L 639.15625 259.957031 L 689.691406 310.453125 C 700.277344 321.039062 717.359375 321.039062 727.945312 310.453125 L 797.589844 240.847656 C 802.664062 235.773438 805.503906 228.910156 805.503906 221.703125 C 805.503906 214.5 802.664062 207.636719 797.589844 202.5625 L 745.976562 150.917969 Z M 708.804688 253.035156 L 658.269531 202.539062 C 647.683594 191.953125 630.601562 191.953125 620.011719 202.539062 L 558.386719 264.128906 C 553.3125 269.203125 550.46875 276.066406 550.46875 283.269531 C 550.46875 290.476562 553.3125 297.339844 558.386719 302.414062 L 608.917969 352.941406 L 577.53125 384.328125 L 526.996094 333.800781 C 521.921875 328.726562 515.023438 325.886719 507.851562 325.886719 C 500.679688 325.886719 493.78125 328.726562 488.707031 333.800781 L 330.074219 492.382812 C 321.648438 500.804688 319.722656 513.722656 325.335938 524.242188 C 354.867188 579.640625 344.855469 646.738281 300.441406 691.179688 C 245.171875 746.445312 155.203125 746.476562 99.898438 691.179688 C 44.628906 635.917969 44.628906 545.957031 99.898438 490.65625 C 127.328125 463.261719 163.351562 448.921875 199.953125 448.921875 C 222.648438 448.921875 245.617188 454.433594 266.824219 465.765625 C 277.34375 471.378906 290.265625 469.453125 298.6875 460.996094 L 666.363281 93.464844 C 675.15625 84.703125 688.957031 84.703125 697.71875 93.464844 C 701.980469 97.691406 704.277344 103.273438 704.277344 109.15625 C 704.277344 115.042969 701.945312 120.621094 697.71875 124.851562 L 689.667969 132.898438 C 679.078125 143.484375 679.078125 160.566406 689.667969 171.152344 L 740.199219 221.679688 Z M 708.804688 253.035156 " fill-opacity="1" fill-rule="nonzero"/></svg>