<svg xmlns="http://www.w3.org/2000/svg" width="1080" zoomAndPan="magnify" viewBox="0 0 810 810" height="1080" preserveAspectRatio="xMidYMid meet" xmlns:v="https://vecta.io/nano"><path d="M719.145 648.277l18.613 18.625c13.594 13.598 20.391 31.52 20.391 49.438-.07 17.887-6.863 35.809-20.422 49.406-13.66 13.633-31.539 20.434-49.414 20.434-17.91 0-35.824-6.801-49.414-20.398L324.164 450.887c-40.172 19.996-85.234 26.961-128.727 20.867-45.664-6.434-89.691-27.199-124.711-62.234-42.918-42.941-64.41-99.246-64.41-155.523.031-56.309 21.492-112.582 64.379-155.488 42.918-43.008 99.227-64.48 155.477-64.48 56.277 0 112.555 21.473 155.477 64.414l.703.77c34.617 34.969 55.137 78.715 61.5 124.035 6.094 43.543-.84 88.598-20.859 128.797l116.004 116.059 68.695-68.73c10.344-10.352 23.973-15.543 37.563-15.543s27.219 5.191 37.563 15.543 15.535 23.98 15.535 37.582-5.191 27.195-15.535 37.547l-68.73 68.766 29.863 29.879 69.535-69.504c10.242-9.848 23.5-14.773 36.727-14.773 13.59 0 27.219 5.195 37.527 15.512 10.379 10.383 15.535 24.016 15.535 37.648 0 13.563-5.191 27.199-15.535 37.547l-68.664 68.766zm.434 36.813l-27.684-27.699c-5.023-5.027-5.023-13.168 0-18.191l77.77-77.844c5.32-5.289 8-12.324 8-19.391 0-7.035-2.68-14.102-8-19.43s-12.355-8.004-19.387-8.004c-6.793 0-13.625 2.477-18.848 7.402l-78.34 78.414c-5.02 5.023-13.156 5.023-18.176 0l-48.008-48.035c-4.957-5.023-4.988-13.129 0-18.156l77.77-77.875c5.32-5.293 8-12.359 8-19.395s-2.68-14.066-8-19.395-12.355-8.004-19.387-8.004-14.094 2.68-19.383 8.004l-77.805 77.844a12.84 12.84 0 0 1-18.176 0L398.152 363.5c-3.914-3.988-4.953-10.219-2.109-15.309 20.727-37.348 28.191-80.191 22.398-121.488-5.625-40.027-23.734-78.648-54.336-109.504l-.633-.602c-37.898-37.918-87.617-56.875-137.301-56.875S126.773 78.68 88.875 116.598c-37.934 37.918-56.914 87.66-56.914 137.371.066 49.707 19.016 99.414 56.914 137.332 31 31.02 69.867 49.375 110.078 55.035 40.977 5.762 83.395-1.539 120.516-21.906 4.988-3.316 11.82-2.781 16.203 1.609l321.395 321.555c8.57 8.578 19.887 12.863 31.234 12.863s22.699-4.285 31.27-12.828c8.602-8.609 12.922-19.965 12.922-31.285-.066-11.32-4.352-22.676-12.922-31.25zM118.68 146.414c21.125-21.203 48.91-31.785 76.699-31.785 27.719-.066 55.473 10.551 76.664 31.719l.805.805c20.688 21.102 31.066 48.57 31.066 75.969 0 27.77-10.613 55.535-31.77 76.738-21.191 21.203-48.98 31.82-76.734 31.82-27.719-.066-55.504-10.652-76.664-31.785-21.258-21.203-31.836-49.004-31.836-76.773a108.26 108.26 0 0 1 31.805-76.703zm18.18 18.156c-16.172 16.145-24.238 37.348-24.238 58.551s8.102 42.406 24.238 58.551c16.168 16.211 37.395 24.316 58.551 24.316 21.195-.066 42.383-8.141 58.52-24.316 16.172-16.18 24.273-37.383 24.273-58.586 0-20.934-7.867-41.902-23.602-57.98l-.637-.602c-16.172-16.18-37.363-24.285-58.555-24.285-21.125-.066-42.316 8.074-58.52 24.25zm0 0"/></svg>