<svg xmlns="http://www.w3.org/2000/svg" width="1080" zoomAndPan="magnify" viewBox="0 0 810 810" height="1080" preserveAspectRatio="xMidYMid meet" xmlns:v="https://vecta.io/nano"><path d="M404.816 720.156c11.602 0 20.996-9.395 20.996-21.004v-126.27C593.335 562.027 726.3 422.296 726.3 251.98c0-11.605-9.391-21.004-20.992-21.004h-55.473c-24.48-257.18-376.816-310.504-473.992-69.133-9.57 26.059 28.539 40.727 39.105 15.305C245.727 98.543 320.27 47.781 404.82 47.781c270.887 11.535 270.75 396.945 0 408.402-112.516 0-204.172-91.676-204.062-204.199 0-11.605-9.395-21.004-20.996-21.004h-75.434c-11.598 0-20.992 9.395-20.992 21.004 0 170.277 132.973 310.008 300.492 320.898v51.766c-193.461 11-198.551 175.621 20.992 179.457 94.578 0 165.887-38.734 165.887-90.07 0-32.254-27.398-60.02-75.152-76.219-26.402-8.473-39.387 30.582-13.484 39.801 97.887 34 24.375 82.949-77.25 84.445-75.613 0-123.902-28.445-123.902-48.027.18-26.234 70.633-47.027 102.871-47.418v32.504c0 11.605 9.391 21.004 20.992 21.004zM126.098 272.984h33.695c34.02 298.656 456.164 298.438 490.078 0h33.695c-35.902 342.867-521.676 342.695-557.465 0zm396.39-32.152c17.934.605 28.254-23.352 14.84-35.848l-85.508-85.547c-19.816-19.191-48.887 9.824-29.672 29.688l85.504 85.551c4.09 4.094 9.465 6.156 14.836 6.156zm0 0"/><path d="M321.77 133c-8.219 8.223-8.219 21.504 0 29.691l172.289 172.375c8.219 8.223 21.492 8.223 29.676 0 8.219-8.223 8.219-21.504 0-29.691L351.445 133c-8.219-8.223-21.492-8.223-29.676 0zm0 0"/></svg>