<svg xmlns="http://www.w3.org/2000/svg" xmlns:xlink="http://www.w3.org/1999/xlink" version="1.1" x="0px" y="0px" viewBox="0 0 60 75" style="enable-background:new 0 0 60 60;" xml:space="preserve"><g><path d="M59,21H1c-0.552,0-1-0.448-1-1v-4c0-0.552,0.448-1,1-1h58c0.552,0,1,0.448,1,1v4C60,20.552,59.552,21,59,21z M2,19h56v-2H2   V19z"/><path d="M57,25H3c-0.552,0-1-0.448-1-1v-4c0-0.552,0.448-1,1-1h54c0.552,0,1,0.448,1,1v4C58,24.552,57.552,25,57,25z M4,23h52v-2H4   V23z"/><path d="M55,60H5c-0.552,0-1-0.448-1-1V24c0-0.552,0.448-1,1-1h50c0.552,0,1,0.448,1,1v35C56,59.552,55.552,60,55,60z M6,58h48V25   H6V58z"/><path d="M35,46H25c-0.552,0-1-0.448-1-1V33c0-3.309,2.692-6,6-6s6,2.691,6,6v12C36,45.552,35.552,46,35,46z M26,44h8V33   c0-2.206-1.794-4-4-4s-4,1.794-4,4V44z"/><path d="M34,38h-8c-0.552,0-1-0.448-1-1s0.448-1,1-1h8c0.552,0,1,0.448,1,1S34.552,38,34,38z"/><path d="M30,46c-0.552,0-1-0.448-1-1V28c0-0.552,0.448-1,1-1s1,0.448,1,1v17C31,45.552,30.552,46,30,46z"/><path d="M50,46H40c-0.552,0-1-0.448-1-1V33c0-3.309,2.692-6,6-6s6,2.691,6,6v12C51,45.552,50.552,46,50,46z M41,44h8V33   c0-2.206-1.794-4-4-4s-4,1.794-4,4V44z"/><path d="M49,38h-8c-0.552,0-1-0.448-1-1s0.448-1,1-1h8c0.552,0,1,0.448,1,1S49.552,38,49,38z"/><path d="M45,46c-0.552,0-1-0.448-1-1V28c0-0.552,0.448-1,1-1s1,0.448,1,1v17C46,45.552,45.552,46,45,46z"/><path d="M20,46H10c-0.552,0-1-0.448-1-1V33c0-3.309,2.692-6,6-6s6,2.691,6,6v12C21,45.552,20.552,46,20,46z M11,44h8V33   c0-2.206-1.794-4-4-4s-4,1.794-4,4V44z"/><path d="M19,38h-8c-0.552,0-1-0.448-1-1s0.448-1,1-1h8c0.552,0,1,0.448,1,1S19.552,38,19,38z"/><path d="M15,46c-0.552,0-1-0.448-1-1V28c0-0.552,0.448-1,1-1s1,0.448,1,1v17C16,45.552,15.552,46,15,46z"/><path d="M20,60H10c-0.552,0-1-0.448-1-1V45c0-0.552,0.448-1,1-1h10c0.552,0,1,0.448,1,1v14C21,59.552,20.552,60,20,60z M11,58h8V46   h-8V58z"/><path d="M14,55c-0.552,0-1-0.448-1-1v-1h-3c-0.552,0-1-0.448-1-1s0.448-1,1-1h4c0.552,0,1,0.448,1,1v2C15,54.552,14.552,55,14,55z"/><path d="M35,60H25c-0.552,0-1-0.448-1-1V45c0-0.552,0.448-1,1-1h10c0.552,0,1,0.448,1,1v14C36,59.552,35.552,60,35,60z M26,58h8V46   h-8V58z"/><path d="M29,55c-0.552,0-1-0.448-1-1v-1h-3c-0.552,0-1-0.448-1-1s0.448-1,1-1h4c0.552,0,1,0.448,1,1v2C30,54.552,29.552,55,29,55z"/><path d="M50,60H40c-0.552,0-1-0.448-1-1V45c0-0.552,0.448-1,1-1h10c0.552,0,1,0.448,1,1v14C51,59.552,50.552,60,50,60z M41,58h8V46   h-8V58z"/><path d="M44,55c-0.552,0-1-0.448-1-1v-1h-3c-0.552,0-1-0.448-1-1s0.448-1,1-1h4c0.552,0,1,0.448,1,1v2C45,54.552,44.552,55,44,55z"/><path d="M57,17H3c-0.552,0-1-0.448-1-1V8c0-0.552,0.448-1,1-1h19.062C22.556,3.059,25.927,0,30,0s7.444,3.059,7.938,7H57   c0.552,0,1,0.448,1,1v8C58,16.552,57.552,17,57,17z M4,15h52V9H37c-0.552,0-1-0.448-1-1c0-3.309-2.692-6-6-6s-6,2.691-6,6   c0,0.552-0.448,1-1,1H4V15z"/><path d="M30,12c-2.206,0-4-1.794-4-4s1.794-4,4-4s4,1.794,4,4S32.206,12,30,12z M30,6c-1.103,0-2,0.897-2,2s0.897,2,2,2   s2-0.897,2-2S31.103,6,30,6z"/><path d="M7,9H3C2.448,9,2,8.552,2,8V4c0-0.552,0.448-1,1-1h4c0.552,0,1,0.448,1,1v4C8,8.552,7.552,9,7,9z M4,7h2V5H4V7z"/><path d="M57,9h-4c-0.552,0-1-0.448-1-1V4c0-0.552,0.448-1,1-1h4c0.552,0,1,0.448,1,1v4C58,8.552,57.552,9,57,9z M54,7h2V5h-2V7z"/><path d="M49,9h-4c-0.552,0-1-0.448-1-1V4c0-0.552,0.448-1,1-1h4c0.552,0,1,0.448,1,1v4C50,8.552,49.552,9,49,9z M46,7h2V5h-2V7z"/><path d="M16,9h-4c-0.552,0-1-0.448-1-1V4c0-0.552,0.448-1,1-1h4c0.552,0,1,0.448,1,1v4C17,8.552,16.552,9,16,9z M13,7h2V5h-2V7z"/></g><text x="0" y="75" fill="#000000" font-size="5px" font-weight="bold" font-family="'Helvetica Neue', Helvetica, Arial-Unicode, Arial, Sans-serif">Created by Prettycons</text><text x="0" y="80" fill="#000000" font-size="5px" font-weight="bold" font-family="'Helvetica Neue', Helvetica, Arial-Unicode, Arial, Sans-serif">from the Noun Project</text></svg>