<svg xmlns="http://www.w3.org/2000/svg" version="1.1" viewBox="-5.0 -10.0 110.0 135.0">
 <g>
  <path d="m50 91.219c-20.734 0-37.594-18.5-37.594-41.219s16.859-41.219 37.594-41.219 37.609 18.484 37.609 41.219-16.875 41.219-37.609 41.219zm0-79.312c-19.016 0-34.469 17.078-34.469 38.094s15.453 38.094 34.469 38.094 34.484-17.094 34.484-38.094-15.469-38.094-34.484-38.094z"/>
  <path d="m50 84.516c-17.375 0-31.516-15.484-31.516-34.516s14.141-34.531 31.516-34.531 31.516 15.484 31.516 34.516-14.141 34.531-31.516 34.531zm0-65.922c-15.656 0-28.391 14.078-28.391 31.391s12.734 31.406 28.391 31.406 28.391-14.078 28.391-31.391-12.734-31.406-28.391-31.406z"/>
  <path d="m28.016 20.141c-0.4375 0-0.875-0.1875-1.1719-0.53125-0.5625-0.65625-0.5-1.6406 0.14062-2.2031 0.60938-0.54688 2.2031-2.3438 2.25-4.1562 0.015625-0.98438-0.40625-1.875-1.3281-2.75-1.5156-1.4531-3.3906-0.67188-4.2969 0.20312-0.39062 0.375-1.5312 1.7188-0.23438 3.125 0.59375 0.64062 0.54688 1.625-0.09375 2.2031s-1.625 0.54688-2.2031-0.09375c-2.0312-2.2031-1.8906-5.2812 0.34375-7.4844 2.125-2.0781 5.875-2.875 8.6406-0.21875 1.5625 1.5 2.3281 3.2031 2.2812 5.0938-0.078125 3.5625-3.1719 6.2969-3.3125 6.4219-0.28125 0.26562-0.65625 0.39062-1.0156 0.39062z"/>
  <path d="m18.531 24.672c-2.4844 0-5.2344-0.73438-7.9062-2.7812-3.1562-2.4219-4.6875-6.3906-3.8906-10.094 0.64062-2.9844 2.7031-5.1875 5.5312-5.8594 3.125-0.75 4.8438 0.625 5.5938 1.5 1.2812 1.5312 1.5938 3.8125 0.78125 5.7031-0.6875 1.5625-2.0625 2.5625-3.7031 2.6406-0.89062 0.0625-1.6094-0.60938-1.6562-1.4688s0.60938-1.5938 1.4688-1.6406c0.17188 0 0.6875-0.03125 1-0.76562 0.34375-0.78125 0.20312-1.8438-0.29688-2.4531-0.5-0.59375-1.3281-0.75-2.4531-0.48438-1.6562 0.40625-2.8281 1.6719-3.2031 3.4688-0.53125 2.5312 0.53125 5.2656 2.7344 6.9688 6.1094 4.6875 11.953 0.28125 12.188 0.09375 0.67188-0.53125 1.6562-0.40625 2.1875 0.28125 0.53125 0.67188 0.40625 1.6562-0.26562 2.1875-1.5781 1.2344-4.5938 2.7031-8.1094 2.7031z"/>
  <path d="m11.656 40.391c-0.57812 0-1.1406-0.078125-1.6719-0.23438-3.5625-0.98438-6.5625-5.1562-5.4531-10.422 0.65625-3.1094 3.375-4.4688 5.7344-4.2344 2.2188 0.23438 4.4531 1.9375 4.4531 5.2344 0 0.85938-0.70312 1.5625-1.5625 1.5625s-1.5625-0.70312-1.5625-1.5625c0-1.7656-1.1562-2.0781-1.6562-2.125-0.92188-0.09375-2.0625 0.42188-2.3438 1.7812-0.73438 3.4688 1.0625 6.1719 3.2344 6.7656 1.9688 0.53125 3.7188-0.79688 4.6875-3.5938 2.5938-7.5-4.375-11.359-4.6719-11.531-0.76562-0.40625-1.0469-1.3594-0.64062-2.1094 0.40625-0.76562 1.3438-1.0469 2.1094-0.64062 3.3438 1.7812 8.9375 7.2656 6.1562 15.312-1.5 4.3125-4.3281 5.7969-6.8125 5.7969z"/>
  <path d="m71.984 20.141c-0.35938 0-0.73438-0.125-1.0312-0.39062-0.125-0.10938-3.2188-2.8594-3.3125-6.4219-0.046875-1.8906 0.71875-3.5938 2.2812-5.0938 2.7656-2.6562 6.5156-1.8594 8.6406 0.21875 2.2344 2.2031 2.375 5.2656 0.34375 7.4844-0.59375 0.64062-1.5781 0.67188-2.2031 0.09375-0.64062-0.59375-0.67188-1.5781-0.09375-2.2031 1.2969-1.4062 0.15625-2.75-0.23438-3.125-0.89062-0.875-2.7812-1.6562-4.2812-0.20312-0.92188 0.875-1.3438 1.7812-1.3281 2.7656 0.046875 2.1719 2.2188 4.1094 2.2344 4.125 0.65625 0.5625 0.71875 1.5625 0.15625 2.2031-0.29688 0.375-0.73438 0.54688-1.1719 0.54688z"/>
  <path d="m81.469 24.672c-3.5156 0-6.5312-1.4531-8.125-2.7188-0.67188-0.53125-0.79688-1.5156-0.26562-2.1875s1.5156-0.79688 2.1875-0.26562c0.25 0.1875 6.0938 4.6094 12.188-0.09375 2.2031-1.6875 3.2812-4.4219 2.7344-6.9688-0.35938-1.7969-1.5312-3.0625-3.1875-3.4688-1.125-0.28125-1.9688-0.10938-2.4688 0.48438-0.51562 0.60938-0.64062 1.6562-0.29688 2.4531 0.3125 0.73438 0.82812 0.76562 1 0.76562 0.85938 0.046875 1.5156 0.78125 1.4844 1.6406-0.046875 0.85938-0.79688 1.5312-1.6406 1.4844-1.6406-0.09375-3.0156-1.0781-3.7031-2.6406-0.8125-1.8906-0.5-4.1719 0.78125-5.7031 0.75-0.89062 2.4688-2.2656 5.5938-1.5 2.8281 0.67188 4.8906 2.875 5.5156 5.8594 0.78125 3.7031-0.73438 7.6719-3.8906 10.094-2.6719 2.0312-5.4219 2.7656-7.9062 2.7656z"/>
  <path d="m88.344 40.391c-2.4844 0-5.3125-1.4844-6.8125-5.8125-2.7812-8.0469 2.8125-13.531 6.1562-15.312 0.76562-0.40625 1.7031-0.10938 2.1094 0.65625s0.10938 1.7031-0.64062 2.1094c-0.3125 0.17188-7.2656 4.0312-4.6719 11.531 0.96875 2.7969 2.7188 4.1406 4.6875 3.5938 2.1719-0.59375 3.9688-3.2969 3.2344-6.7656-0.28125-1.3594-1.4062-1.875-2.3438-1.7812-0.5 0.046875-1.6562 0.35938-1.6562 2.125 0 0.85938-0.70312 1.5625-1.5625 1.5625s-1.5625-0.70312-1.5625-1.5625c0-3.2969 2.2344-5 4.4531-5.2344 2.3281-0.23438 5.0781 1.125 5.7344 4.2344 1.1094 5.2656-1.8906 9.4375-5.4531 10.422-0.53125 0.15625-1.0938 0.23438-1.6719 0.23438z"/>
  <path d="m25.984 93.438c-1.7188 0-3.3906-0.75-4.5625-1.9062-2.2344-2.2031-2.375-5.2812-0.34375-7.4844 0.59375-0.64062 1.5781-0.67188 2.2031-0.09375 0.64062 0.59375 0.67188 1.5781 0.09375 2.2031-1.2969 1.4062-0.15625 2.75 0.23438 3.125 0.89062 0.875 2.7656 1.6562 4.2812 0.20312 0.90625-0.875 1.3438-1.7656 1.3281-2.75-0.03125-1.8125-1.625-3.6094-2.25-4.1406-0.64062-0.5625-0.70312-1.5625-0.14062-2.2031s1.5469-0.71875 2.2031-0.14062c0.125 0.10938 3.2188 2.8594 3.3125 6.4062 0.046875 1.8906-0.71875 3.5938-2.2812 5.0938-1.2344 1.1875-2.6719 1.6875-4.0781 1.6875z"/>
  <path d="m13.984 94.281c-0.51562 0-1.0938-0.0625-1.7344-0.21875-2.8281-0.67188-4.8906-2.875-5.5156-5.8594-0.78125-3.7031 0.73438-7.6719 3.8906-10.094 6.4375-4.9531 13.297-2.2188 16.016-0.0625 0.67188 0.53125 0.79688 1.5156 0.26562 2.1875s-1.5156 0.79688-2.1875 0.26562c-0.26562-0.20312-6.1094-4.5938-12.188 0.09375-2.2031 1.6875-3.2812 4.4219-2.7344 6.9688 0.39062 1.8125 1.5469 3.0781 3.2031 3.4688 1.125 0.26562 1.9688 0.10938 2.4688-0.48438 0.51562-0.60938 0.64062-1.6562 0.29688-2.4531-0.3125-0.73438-0.82812-0.76562-1-0.76562-0.85938-0.046875-1.5156-0.78125-1.4844-1.6406 0.046875-0.85938 0.78125-1.5156 1.6406-1.4844 1.6406 0.09375 3.0156 1.0781 3.7031 2.6406 0.8125 1.8906 0.5 4.1719-0.78125 5.7031-0.59375 0.71875-1.7969 1.7344-3.8594 1.7344z"/>
  <path d="m11.578 80.922c-0.5625 0-1.0938-0.29688-1.375-0.82812-0.40625-0.76562-0.10938-1.7031 0.64062-2.1094 0.3125-0.17188 7.2656-4.0312 4.6719-11.531-0.96875-2.7969-2.7344-4.1406-4.6875-3.5938-2.1562 0.59375-3.9688 3.2969-3.2344 6.7656 0.28125 1.3594 1.4219 1.8594 2.3438 1.7656 0.5-0.046875 1.6562-0.35938 1.6562-2.125 0-0.85938 0.70312-1.5625 1.5625-1.5625s1.5625 0.70312 1.5625 1.5625c0 3.2969-2.2344 5-4.4531 5.2344-2.3281 0.25-5.0781-1.125-5.7344-4.2344-1.1094-5.2656 1.8906-9.4375 5.4531-10.422 2.75-0.76562 6.625 0.25 8.4844 5.5938 2.7812 8.0469-2.8125 13.531-6.1562 15.297-0.23438 0.125-0.48438 0.1875-0.73438 0.1875z"/>
  <path d="m74.016 93.438c-1.4062 0-2.8281-0.5-4.0781-1.6875-1.5625-1.5-2.3281-3.2031-2.2812-5.0938 0.078125-3.5625 3.1719-6.2969 3.3125-6.4062 0.64062-0.5625 1.6406-0.5 2.2031 0.15625s0.5 1.625-0.14062 2.2031c-0.60938 0.54688-2.2031 2.3438-2.25 4.1406-0.015625 0.98438 0.40625 1.875 1.3281 2.75 1.5156 1.4531 3.3906 0.67188 4.2812-0.20312 0.39062-0.375 1.5312-1.7188 0.23438-3.125-0.59375-0.64062-0.54688-1.625 0.09375-2.2031 0.625-0.57812 1.625-0.54688 2.2031 0.09375 2.0312 2.2031 1.8906 5.2812-0.34375 7.4844-1.1719 1.125-2.8438 1.8906-4.5625 1.8906z"/>
  <path d="m86.016 94.281c-2.0469 0-3.2656-1.0156-3.8594-1.7188-1.2812-1.5312-1.5938-3.8125-0.78125-5.7031 0.6875-1.5625 2.0625-2.5625 3.7031-2.6406 0.84375-0.046875 1.5938 0.60938 1.6406 1.4844 0.046875 0.85938-0.60938 1.5938-1.4844 1.6406-0.17188 0-0.6875 0.03125-1 0.76562-0.34375 0.78125-0.20312 1.8438 0.29688 2.4531 0.5 0.59375 1.3281 0.75 2.4688 0.48438 1.6406-0.39062 2.8125-1.6562 3.2031-3.4688 0.54688-2.5312-0.53125-5.2812-2.7344-6.9688-6.0938-4.6875-11.953-0.28125-12.188-0.09375-0.6875 0.53125-1.6562 0.40625-2.1875-0.26562s-0.40625-1.6562 0.26562-2.1875c2.7344-2.1406 9.5781-4.8906 16.031 0.0625 3.1562 2.4219 4.6719 6.375 3.8906 10.094-0.64062 2.9844-2.7031 5.1875-5.5156 5.8594-0.65625 0.14062-1.2344 0.20312-1.75 0.20312z"/>
  <path d="m88.422 80.922c-0.25 0-0.5-0.0625-0.73438-0.1875-3.3438-1.7812-8.9375-7.2656-6.1562-15.297 1.8438-5.3438 5.7188-6.3594 8.4844-5.5938 3.5625 0.98438 6.5625 5.1562 5.4531 10.422-0.65625 3.1094-3.3594 4.4688-5.7344 4.2344-2.2188-0.23438-4.4531-1.9375-4.4531-5.2344 0-0.85938 0.70312-1.5625 1.5625-1.5625s1.5625 0.70312 1.5625 1.5625c0 1.7656 1.1562 2.0781 1.6562 2.125 0.92188 0.09375 2.0625-0.42188 2.3438-1.7656 0.73438-3.4688-1.0625-6.1719-3.2344-6.7656-1.9688-0.54688-3.7188 0.79688-4.6875 3.5938-2.5938 7.5 4.375 11.359 4.6719 11.531 0.75 0.40625 1.0469 1.3594 0.64062 2.1094-0.28125 0.51562-0.82812 0.82812-1.375 0.82812z"/>
 </g>
<text x="0.0" y="117.5" font-size="5.0" font-weight="bold" font-family="Arbeit Regular, Helvetica, Arial-Unicode, Arial, Sans-serif" fill="#000000">Created by Upnow Graphic</text><text x="0.0" y="122.5" font-size="5.0" font-weight="bold" font-family="Arbeit Regular, Helvetica, Arial-Unicode, Arial, Sans-serif" fill="#000000">from Noun Project</text></svg>