<svg xmlns="http://www.w3.org/2000/svg" width="1080" zoomAndPan="magnify" viewBox="0 0 810 810" height="1080" preserveAspectRatio="xMidYMid meet" xmlns:v="https://vecta.io/nano"><path d="M405.285 601.246c62.016 0 118.602 9.855 159.906 25.781 46.633 17.969 75.48 44.883 75.48 76.52 0 31.609-28.848 58.523-75.48 76.516-41.305 15.926-97.891 25.758-159.906 25.758s-118.574-9.855-159.902-25.758c-46.633-17.969-75.48-44.906-75.48-76.516 0-31.637 28.848-58.551 75.48-76.52 41.305-15.926 97.863-25.781 159.902-25.781zm17.961-450.797l3.836 12.512c3.363 11.012 9.016 20.453 16.535 27.996 7.52 7.523 16.977 13.176 27.984 16.543l12.629 3.883c9.902 3.051 15.457 13.543 12.434 23.449-1.918 6.219-6.758 10.719-12.531 12.465l-12.508 3.832c-11.008 3.395-20.441 9.02-27.984 16.543-7.52 7.52-13.168 16.984-16.535 27.996l-3.883 12.609c-3.047 9.906-13.539 15.484-23.441 12.438-6.215-1.918-10.711-6.758-12.457-12.535l-3.832-12.512c-3.363-11.012-9.016-20.477-16.535-27.996s-16.977-13.148-27.984-16.543l-12.629-3.859c-9.902-3.047-15.457-13.543-12.434-23.449 1.918-6.219 6.758-10.715 12.531-12.461l12.508-3.836c11.004-3.367 20.441-9.02 27.984-16.539 7.52-7.523 13.168-16.984 16.535-27.996l3.883-12.637c3.047-9.906 13.539-15.461 23.438-12.437 6.219 1.918 10.715 6.762 12.457 12.535zm-6.215 67.105a100.35 100.35 0 0 1-11.746-14.16c-3.488 5.113-7.418 9.832-11.742 14.16s-9.066 8.258-14.152 11.746c5.086 3.516 9.828 7.426 14.152 11.75s8.254 9.07 11.742 14.16a100.35 100.35 0 0 1 11.746-14.16 100.31 100.31 0 0 1 14.152-11.75c-5.086-3.488-9.828-7.422-14.152-11.746zM551.086 30.109l4.227-13.742c1.746-5.777 6.242-10.641 12.457-12.535a18.75 18.75 0 0 1 23.441 12.438l4.25 13.863c3.809 12.387 10.148 23.031 18.625 31.512s19.113 14.82 31.5 18.629l13.734 4.23c5.773 1.746 10.637 6.242 12.527 12.461 3.047 9.906-2.504 20.402-12.43 23.449l-13.859 4.254c-12.383 3.809-23.023 10.148-31.5 18.629s-14.812 19.125-18.621 31.512l-4.227 13.742c-1.746 5.773-6.242 10.641-12.457 12.535a18.75 18.75 0 0 1-23.441-12.437l-4.273-13.863c-3.809-12.391-10.148-23.031-18.625-31.512s-19.117-14.82-31.5-18.633l-13.734-4.227c-5.797-1.746-10.641-6.242-12.531-12.461-3.047-9.906 2.508-20.402 12.41-23.449l13.879-4.277c12.383-3.809 23.023-10.152 31.5-18.633s14.816-19.121 18.625-31.512zm22.188 40.531c-4.152 6.391-8.895 12.266-14.203 17.574-5.328 5.309-11.203 10.055-17.566 14.207 6.391 4.152 12.262 8.898 17.566 14.207 5.309 5.332 10.051 11.207 14.203 17.574 4.152-6.391 8.895-12.266 14.203-17.574 5.332-5.309 11.203-10.055 17.566-14.207-6.387-4.152-12.262-8.898-17.566-14.207a110.27 110.27 0 0 1-14.203-17.574zM255.262 16.344l4.227 13.738c3.809 12.391 10.145 23.031 18.625 31.512s19.113 14.824 31.496 18.633l13.883 4.277c9.902 3.047 15.457 13.543 12.41 23.449-1.918 6.219-6.734 10.715-12.531 12.461l-13.734 4.227c-12.387 3.813-23.023 10.152-31.5 18.633s-14.816 19.121-18.625 31.512l-4.273 13.863c-3.047 9.906-13.539 15.461-23.441 12.438-6.215-1.918-10.715-6.762-12.457-12.535l-4.227-13.742c-3.809-12.387-10.148-23.031-18.625-31.512s-19.113-14.82-31.5-18.629l-13.855-4.254c-9.902-3.047-15.457-13.543-12.434-23.449 1.918-6.219 6.758-10.715 12.531-12.461l13.734-4.23c12.383-3.809 23.023-10.148 31.5-18.629s14.816-19.125 18.625-31.512l4.25-13.863c3.047-9.906 13.539-15.461 23.441-12.437a18.82 18.82 0 0 1 12.457 12.535zM251.5 88.215c-5.305-5.336-10.047-11.207-14.199-17.574-4.152 6.391-8.895 12.266-14.203 17.574-5.332 5.309-11.203 10.055-17.566 14.207 6.387 4.152 12.262 8.898 17.566 14.207 5.309 5.332 10.051 11.207 14.203 17.574 4.152-6.391 8.895-12.266 14.199-17.574 5.332-5.309 11.207-10.055 17.57-14.207-6.391-4.152-12.262-8.898-17.57-14.207zM377.031 446.59L84.426 187.246l98.281 366.41c2.676 10.031-3.27 20.328-13.293 23.008s-20.32-3.27-23-13.297L31.965 136.637h.051c-1.547-5.875-.246-12.387 4.078-17.254 6.855-7.742 18.699-8.48 26.461-1.625l342.781 303.809 342.781-303.809c7.762-6.855 19.605-6.145 26.461 1.625 4.324 4.891 5.625 11.402 4.078 17.254h.051l-114.449 426.73c-2.68 10.027-12.973 15.977-23 13.297a18.79 18.79 0 0 1-13.289-23.008l98.277-366.41-308.453 273.402-.098.074-51.133 45.301c-7.738 6.855-19.605 6.145-26.461-1.625-6.855-7.742-6.141-19.613 1.621-26.473l35.383-31.363zm174.645 215.414c-37.074-14.277-88.797-23.129-146.391-23.129s-109.312 8.824-146.387 23.129c-31.746 12.242-51.379 27.039-51.379 41.543 0 14.477 19.633 29.297 51.379 41.516 37.074 14.277 88.797 23.129 146.387 23.129s109.316-8.824 146.391-23.129c31.746-12.242 51.379-27.039 51.379-41.516s-19.633-29.301-51.379-41.543zm0 0"/></svg>