<svg xmlns="http://www.w3.org/2000/svg" width="1080" zoomAndPan="magnify" viewBox="0 0 810 810" height="1080" preserveAspectRatio="xMidYMid meet" xmlns:v="https://vecta.io/nano"><path d="M461.543 133.637H133.559c-8.344 0-15.844 6.68-15.844 15.836 0 9.188 6.684 15.836 15.844 15.836h327.984c8.348 0 15.844-6.68 15.844-15.836s-6.684-15.836-15.844-15.836zm0 132.617H133.559c-8.344 0-15.844 6.68-15.844 15.836 0 8.34 6.684 15.836 15.844 15.836h327.984c8.348 0 15.844-6.68 15.844-15.836 0-8.309-6.684-15.836-15.844-15.836zm15.84 148.488c0-8.34-6.684-15.836-15.844-15.836H133.555c-8.344 0-15.84 6.68-15.84 15.836 0 8.344 6.68 15.836 15.84 15.836h327.984c9.164-.816 15.844-7.496 15.844-15.836zM133.559 530.715c-8.344 0-15.844 6.68-15.844 15.836 0 8.344 6.684 15.836 15.844 15.836H426.5c8.348 0 15.844-6.68 15.844-15.836 0-8.34-6.684-15.836-15.844-15.836zM362.207 660.82H86.809c-26.699 0-49.227-21.699-49.227-49.203V84.434c0-26.687 21.711-48.387 49.227-48.387h413.098c31.723 0 57.57 25.871 57.57 57.543v226.887c0 8.34 6.684 15.836 15.844 15.836 9.195 0 15.844-6.68 15.844-15.836l.066-226.887c0-49.203-40.066-89.246-89.289-89.246H86.809C42.57 4.344 6.68 40.219 6.68 84.438v527.184c0 44.219 35.891 80.094 80.129 80.094h275.398c8.348 0 15.844-6.68 15.844-15.836-.816-8.375-7.496-15.055-15.844-15.055zm386.402-309.449l-55.906-36.691c-10.855-6.68-23.375-9.187-35.043-6.68-12.52 2.512-22.527 10.004-29.211 20.008L428.16 635.797c-11.672 18.348-17.539 39.199-16.691 61.715l3.324 84.27c0 5.016 2.512 10.004 7.496 12.512 2.512 1.66 5.836 2.508 8.348 2.508 1.664 0 4.172 0 5.836-.848l77.617-31.703c20.016-8.34 37.555-22.516 49.227-40.859l200.289-307.793c12.551-21.699 6.719-50.051-14.996-64.223zM535.801 706.707c-8.344 12.516-20.016 22.52-34.23 28.352l-56.754 23.363-2.512-61.715c-.848-15.023 3.328-30.043 11.672-43.371l164.465-252.762 81.793 53.375zm200.293-307.789l-18.355 28.348-81.789-53.371 18.352-28.348c2.512-3.324 5.836-5.836 10.008-6.684h3.324c3.324 0 5.836.848 8.348 2.512l55.906 36.688c6.715 4.172 8.379 13.328 4.207 20.855zm0 0"/></svg>