<svg xmlns="http://www.w3.org/2000/svg" width="1080" zoomAndPan="magnify" viewBox="0 0 810 810" height="1080" preserveAspectRatio="xMidYMid meet" xmlns:v="https://vecta.io/nano"><path d="M790.523 33.129a14.15 14.15 0 0 0-2.629.262 14.06 14.06 0 0 0-2.535.742 14.13 14.13 0 0 0-2.352 1.203 14.4 14.4 0 0 0-2.09 1.617 14.3 14.3 0 0 0-1.75 1.98 13.7 13.7 0 0 0-1.352 2.27 13.93 13.93 0 0 0-.91 2.48c-.226.855-.367 1.723-.43 2.605l-.324-.023c-3.43 43.145-95.285 88.668-238.012 106.695-.234.027-.445-.066-.676-.027-.195.027-.336.156-.527.191a1066.25 1066.25 0 0 1-131.797 7.867 1065.81 1065.81 0 0 1-131.816-7.871c-.187-.035-.328-.16-.52-.187-.23-.035-.437.055-.664.027-142.725-18.026-234.58-63.55-238.01-106.694l-.32.023a14.17 14.17 0 0 0-.457-2.684 14.26 14.26 0 0 0-.957-2.551 14.27 14.27 0 0 0-1.43-2.316 14.04 14.04 0 0 0-1.848-2.004 13.83 13.83 0 0 0-2.191-1.613 14.05 14.05 0 0 0-2.465-1.164 14.19 14.19 0 0 0-2.637-.672 14.08 14.08 0 0 0-2.719-.152 13.98 13.98 0 0 0-2.699.367 14.32 14.32 0 0 0-2.578.875 14.62 14.62 0 0 0-2.363 1.355 14.19 14.19 0 0 0-2.059 1.781 14.35 14.35 0 0 0-1.684 2.141 14.23 14.23 0 0 0-1.242 2.426 14.14 14.14 0 0 0-.754 2.617 14.04 14.04 0 0 0-.242 2.715v713.945a20.95 20.95 0 0 0 .105 2.098 21.84 21.84 0 0 0 .309 2.078 21.63 21.63 0 0 0 .516 2.039 21.27 21.27 0 0 0 .707 1.977 21.06 21.06 0 0 0 .898 1.898c.332.617.691 1.219 1.082 1.801a19.62 19.62 0 0 0 1.25 1.688 21.25 21.25 0 0 0 2.969 2.969 21.14 21.14 0 0 0 1.684 1.254 21.57 21.57 0 0 0 1.805 1.078 20.98 20.98 0 0 0 1.898.902 20.94 20.94 0 0 0 1.977.707c.672.203 1.348.375 2.035.512a22.04 22.04 0 0 0 2.078.313 23.57 23.57 0 0 0 2.098.105h43.574a35.22 35.22 0 0 0 3.688-.195 34.77 34.77 0 0 0 3.648-.586 34.08 34.08 0 0 0 3.566-.965 34.12 34.12 0 0 0 3.445-1.336c1.125-.504 2.223-1.07 3.285-1.691s2.094-1.297 3.09-2.027a36.56 36.56 0 0 0 2.855-2.344 35.09 35.09 0 0 0 2.594-2.633c.816-.926 1.586-1.887 2.301-2.895a35.51 35.51 0 0 0 1.984-3.117 35.99 35.99 0 0 0 1.645-3.309 34.23 34.23 0 0 0 1.285-3.465 35.38 35.38 0 0 0 .914-3.582 36.14 36.14 0 0 0 .527-3.656c.113-1.23.16-2.461.141-3.695a35.24 35.24 0 0 0-.246-3.687l-.289-2.387 11.855-2.215c1.172-.211 2.332-.469 3.477-.781s2.281-.664 3.402-1.07 2.215-.855 3.293-1.352a42.91 42.91 0 0 0 3.172-1.629c1.035-.586 2.039-1.219 3.02-1.891a41.06 41.06 0 0 0 2.852-2.137 42.59 42.59 0 0 0 2.664-2.371 43.74 43.74 0 0 0 2.449-2.586 42.38 42.38 0 0 0 2.227-2.785 45.4 45.4 0 0 0 1.98-2.961 41.52 41.52 0 0 0 1.723-3.121c.532-1.062 1.016-2.148 1.457-3.254a42.84 42.84 0 0 0 1.176-3.363 42.21 42.21 0 0 0 .887-3.453 43.13 43.13 0 0 0 .594-3.516 41.56 41.56 0 0 0 .293-3.551h507.441a41.56 41.56 0 0 0 .293 3.551 41.26 41.26 0 0 0 .594 3.516 42.21 42.21 0 0 0 .887 3.453 41.3 41.3 0 0 0 1.176 3.363 41.07 41.07 0 0 0 1.453 3.254 41.88 41.88 0 0 0 1.727 3.121c.617 1.016 1.277 2 1.98 2.961a42.32 42.32 0 0 0 2.223 2.785 42.56 42.56 0 0 0 2.453 2.586 41.44 41.44 0 0 0 2.66 2.371c.922.754 1.871 1.465 2.852 2.137a42.36 42.36 0 0 0 3.02 1.891 44.13 44.13 0 0 0 3.172 1.629 41.69 41.69 0 0 0 3.297 1.352 41.29 41.29 0 0 0 3.398 1.07 40.42 40.42 0 0 0 3.477.781l11.844 2.215-.289 2.387a34.46 34.46 0 0 0-.246 3.688c-.016 1.235.031 2.465.145 3.691a33.78 33.78 0 0 0 .531 3.656 35.12 35.12 0 0 0 .914 3.582 35.48 35.48 0 0 0 1.285 3.465c.488 1.133 1.039 2.234 1.645 3.309a34.34 34.34 0 0 0 1.984 3.117 34.08 34.08 0 0 0 2.301 2.891 34.27 34.27 0 0 0 2.594 2.633 34.22 34.22 0 0 0 2.855 2.344 34.41 34.41 0 0 0 3.086 2.027 34.73 34.73 0 0 0 3.281 1.695 36.09 36.09 0 0 0 3.445 1.336 34.08 34.08 0 0 0 3.566.965 33.78 33.78 0 0 0 3.648.586c1.223.133 2.453.195 3.688.199h43.586a23.42 23.42 0 0 0 2.098-.105 21.85 21.85 0 0 0 2.078-.312 21.32 21.32 0 0 0 2.035-.512 22.1 22.1 0 0 0 1.98-.707c.645-.27 1.277-.57 1.898-.902a20.5 20.5 0 0 0 1.801-1.078 21.94 21.94 0 0 0 1.688-1.254 22.1 22.1 0 0 0 1.555-1.41 21.25 21.25 0 0 0 1.41-1.559 20.52 20.52 0 0 0 1.254-1.687 22.61 22.61 0 0 0 1.078-1.801 20.05 20.05 0 0 0 .898-1.898 21.3 21.3 0 0 0 .711-1.977 21.61 21.61 0 0 0 .512-2.039 21.84 21.84 0 0 0 .309-2.078 20.95 20.95 0 0 0 .105-2.098V47.41c0-.941-.09-1.867-.273-2.789a14.31 14.31 0 0 0-.809-2.68c-.359-.863-.801-1.687-1.32-2.469s-1.113-1.5-1.773-2.164-1.387-1.254-2.164-1.773a14.38 14.38 0 0 0-2.469-1.32 14.32 14.32 0 0 0-2.68-.812c-.918-.184-1.848-.273-2.785-.273zM776.25 487.395h-49.387v-18.742h49.387zm-56.523-47.297c-.652 0-1.273.137-1.914.191-8.328-6.395-16.418-13.078-24.262-20.059s-15.43-14.234-22.754-21.762a436.14 436.14 0 0 1-21.121-23.348 436.72 436.72 0 0 1-19.383-24.812 436.5 436.5 0 0 1-17.539-26.148 436.31 436.31 0 0 1-15.609-27.348 436.43 436.43 0 0 1-13.59-28.398 433.3 433.3 0 0 1-11.508-29.312 421.43 421.43 0 0 1-15.766-59.77c31.941-4.418 63.465-10.867 94.574-19.348a627 627 0 0 0 8.586 57.613 626.73 626.73 0 0 0 13.883 56.574c5.504 18.641 11.859 36.988 19.07 55.039s15.234 35.73 24.086 53.035a632.53 632.53 0 0 0 33 57.852zM776.25 99.477v328.785a606.24 606.24 0 0 1-34.262-58.816 596.93 596.93 0 0 1-23.566-51.977c-7.027-17.699-13.195-35.695-18.504-53.988a597.01 597.01 0 0 1-13.266-55.508c-3.539-18.715-6.176-37.555-7.914-56.52 17.848-5.266 34.977-12.277 51.398-21.027s31.793-19.066 46.113-30.949zm-248.316 83.445a450.87 450.87 0 0 0 17.125 65.523c3.672 10.461 7.715 20.777 12.125 30.945a467.57 467.57 0 0 0 14.309 30.004c5.129 9.828 10.602 19.461 16.418 28.898a463.96 463.96 0 0 0 18.441 27.648 464.08 464.08 0 0 0 20.375 26.262 463.81 463.81 0 0 0 22.199 24.734 464.42 464.42 0 0 0 23.91 23.078 464.38 464.38 0 0 0 25.5 21.313l-.02.188v33.016a21.05 21.05 0 0 0 1.324 7.281 21.04 21.04 0 0 0 3.738 6.383l-39.656 162.414H146.559l-39.664-162.402a21.1 21.1 0 0 0 3.746-6.391 21.07 21.07 0 0 0 1.324-7.285v-33.016l-.02-.184c8.754-6.801 17.254-13.906 25.5-21.316s16.215-15.102 23.906-23.082 15.094-16.227 22.199-24.734 13.895-17.266 20.371-26.262a465.26 465.26 0 0 0 18.441-27.648 461.86 461.86 0 0 0 16.418-28.898 464.45 464.45 0 0 0 14.313-30 466.74 466.74 0 0 0 12.129-30.945 449.2 449.2 0 0 0 17.113-65.523c40.813 4.48 81.75 6.688 122.805 6.625a1108.78 1108.78 0 0 0 122.793-6.625zM92.473 440.293c-.641-.059-1.262-.195-1.918-.195H60.801c12.008-18.703 23.008-37.988 32.988-57.852a627.77 627.77 0 0 0 24.09-53.035 627.84 627.84 0 0 0 19.07-55.039 628.07 628.07 0 0 0 13.887-56.574c3.75-19.074 6.613-38.277 8.582-57.617a749.92 749.92 0 0 0 94.574 19.348 420.78 420.78 0 0 1-15.754 59.773 436.58 436.58 0 0 1-11.512 29.309c-4.191 9.629-8.723 19.098-13.598 28.398a435.42 435.42 0 0 1-15.605 27.348 436.47 436.47 0 0 1-17.543 26.145 435.26 435.26 0 0 1-19.379 24.813 436.22 436.22 0 0 1-21.121 23.352 436.49 436.49 0 0 1-22.746 21.762c-7.848 6.98-15.934 13.668-24.262 20.066zm-58.441 37.73v-9.371h49.387v18.742H34.031zm97.504-326.574a598.68 598.68 0 0 1-7.91 56.523c-3.539 18.715-7.961 37.219-13.27 55.508s-11.477 36.289-18.504 53.988a596.96 596.96 0 0 1-23.57 51.977 606.94 606.94 0 0 1-34.25 59.516V99.48a273.79 273.79 0 0 0 46.109 30.941 273.46 273.46 0 0 0 51.395 21.027zM75.277 752.055c-.609.691-1.332 1.227-2.172 1.602a6.26 6.26 0 0 1-2.637.559H34.031V515.949h14.887l27.918 231.07a6.26 6.26 0 0 1-.234 2.688 6.28 6.28 0 0 1-1.324 2.348zm45.609-47.437c-1.059 1.656-2.398 3.027-4.027 4.121a14 14 0 0 1-5.34 2.168l-10.051 1.879L77.683 515.95h1.711l43.359 177.543a13.96 13.96 0 0 1 .227 5.758 13.95 13.95 0 0 1-2.094 5.367zm577.879 6.289a13.45 13.45 0 0 1-1.41-.336 14.18 14.18 0 0 1-1.367-.48 14.33 14.33 0 0 1-1.312-.613 15.29 15.29 0 0 1-1.242-.746 14.05 14.05 0 0 1-1.16-.867 13.94 13.94 0 0 1-1.066-.984 14.86 14.86 0 0 1-.961-1.082 14.09 14.09 0 0 1-.848-1.176 14.26 14.26 0 0 1-.723-1.258 14.44 14.44 0 0 1-.594-1.324c-.176-.453-.324-.91-.453-1.375s-.23-.937-.312-1.414a14.94 14.94 0 0 1-.168-1.441c-.031-.484-.035-.965-.02-1.449a14.93 14.93 0 0 1 .129-1.445 13.62 13.62 0 0 1 .273-1.422l43.348-177.543h1.707l-23.785 196.832zm41.035 43.309c-.453 0-.902-.047-1.348-.141s-.875-.234-1.289-.422a6.29 6.29 0 0 1-1.172-.684 6.52 6.52 0 0 1-1-.914 6.41 6.41 0 0 1-.785-1.102c-.223-.395-.402-.812-.539-1.246a6.7 6.7 0 0 1-.262-1.332 6.6 6.6 0 0 1 .023-1.355l27.922-231.07h14.898v238.266zM405.141 116.402c89.977 0 175.379-21.477 228.461-57.434.758-.512 1.461-1.094 2.105-1.742s1.223-1.355 1.727-2.121.934-1.57 1.281-2.418a13.99 13.99 0 0 0 .781-2.617 13.83 13.83 0 0 0 .254-2.723c-.004-.914-.102-1.824-.285-2.723s-.453-1.766-.809-2.609a13.74 13.74 0 0 0-1.305-2.402 13.47 13.47 0 0 0-1.75-2.102 13.66 13.66 0 0 0-2.125-1.723 14.03 14.03 0 0 0-2.422-1.27 14.01 14.01 0 0 0-2.621-.77c-.898-.172-1.809-.254-2.723-.246s-1.82.109-2.719.297a14.1 14.1 0 0 0-2.605.816 13.88 13.88 0 0 0-2.398 1.316C569.34 68.895 489.766 88.57 405.141 88.57c-84.637 0-164.215-19.676-212.859-52.637a13.97 13.97 0 0 0-2.398-1.305 13.75 13.75 0 0 0-2.602-.809c-.895-.184-1.801-.277-2.715-.285a14.1 14.1 0 0 0-2.715.25 13.85 13.85 0 0 0-2.613.773 13.68 13.68 0 0 0-2.414 1.27 14.15 14.15 0 0 0-2.121 1.715 14.19 14.19 0 0 0-1.742 2.098 13.95 13.95 0 0 0-1.301 2.398 13.79 13.79 0 0 0-.809 2.605 13.45 13.45 0 0 0-.285 2.711 13.79 13.79 0 0 0 .246 2.719 13.85 13.85 0 0 0 .773 2.613 13.94 13.94 0 0 0 1.27 2.414 13.55 13.55 0 0 0 1.719 2.121c.645.648 1.34 1.23 2.094 1.746 53.078 35.957 138.496 57.434 228.473 57.434zm0 0"/></svg>